<svg xmlns="http://www.w3.org/2000/svg" xmlns:xlink="http://www.w3.org/1999/xlink" viewBox="0,0,256,256" width="144px" height="144px"><g fill="#ffffff" fill-rule="nonzero" stroke="none" stroke-width="1" stroke-linecap="butt" stroke-linejoin="miter" stroke-miterlimit="10" stroke-dasharray="" stroke-dashoffset="0" font-family="none" font-weight="none" font-size="none" text-anchor="none" style="mix-blend-mode: normal"><g transform="scale(5.33333,5.33333)"><path d="M12.5,4c-2.4675,0 -4.5,2.0325 -4.5,4.5v31c0,2.4675 2.0325,4.5 4.5,4.5h23c2.4675,0 4.5,-2.0325 4.5,-4.5v-21c-0.00008,-0.3978 -0.15815,-0.77928 -0.43945,-1.06055l-0.01562,-0.01562l-12.98437,-12.98437c-0.28127,-0.2813 -0.66275,-0.43938 -1.06055,-0.43945zM12.5,7h11.5v8.5c0,2.4675 2.0325,4.5 4.5,4.5h8.5v19.5c0,0.8465 -0.6535,1.5 -1.5,1.5h-23c-0.8465,0 -1.5,-0.6535 -1.5,-1.5v-31c0,-0.8465 0.6535,-1.5 1.5,-1.5zM27,9.12109l7.87891,7.87891h-6.37891c-0.8465,0 -1.5,-0.6535 -1.5,-1.5z"></path></g></g></svg>